<?xml version="1.0" encoding="UTF-8"?>
<svg width="42px" height="50px" viewBox="0 0 42 50" version="1.1"
  xmlns="http://www.w3.org/2000/svg"
  xmlns:xlink="http://www.w3.org/1999/xlink">
  <path fill="#0d3b66" d="M28.1354579,23.7679302 C26.0064989,25.5221517 12.0650552,37.0141775 8.8372133,39.6767607 L3.37922613,34.0578351 L18.8971518,14.2572164 L28.1354579,23.7679302 Z M38.8794156,3.21103784 C34.7206601,-1.07034595 27.9755836,-1.07034595 23.8168281,3.21103784 C21.0746803,6.03612613 20.8419519,9.13205621 20.708386,10.2300072 L32.061485,21.9178724 C33.040968,21.8053689 36.1129831,21.5657781 38.8794156,18.7177724 C43.0401948,14.4363886 43.0401948,7.49242164 38.8794156,3.21103784 Z M18.9781008,40.5872059 C14.3397224,40.5872059 12.220882,43.5602154 9.23183974,45.4936092 C7.11502306,46.8603186 5.111535,46.1665469 4.14824175,44.9394252 C3.79813727,44.4998281 2.79841697,42.9164453 4.50036996,41.1018053 L4.24740429,40.8413805 L1.96868959,38.5683928 C-0.807861537,41.518485 -0.316096286,45.0435951 1.40407023,47.2290801 C3.37720241,49.7374918 7.34572775,51.004198 11.1078331,48.5728721 C14.3154377,46.4998906 15.7360929,44.2227361 18.9781008,44.2227361 C21.0746803,44.2227361 22.985077,45.189433 26.0307836,50 L28.9874462,48.0166047 C26.1683969,43.558132 23.3857746,40.5872059 18.9781008,40.5872059 L18.9781008,40.5872059 Z" id="Shape"></path>
</svg>