<?xml version="1.0" encoding="UTF-8"?>
<svg width="35px" height="35px" viewBox="0 0 34 35" version="1.1"
  xmlns="http://www.w3.org/2000/svg"
  xmlns:xlink="http://www.w3.org/1999/xlink">
  <title>account_circle-24px</title>
  <g id="Board" stroke="none" stroke-width="1" fill="none" fill-rule="evenodd">
    <g id="FriendsRanking" transform="translate(-364.000000, -30.000000)">
      <g id="account_circle-24px" transform="translate(364.000000, 30.000000)">
        <polygon id="Path" points="0 0 34 0 34 35 0 35"></polygon>
        <path d="M17,3 C9.272,3 3,9.496 3,17.5 C3,25.504 9.272,32 17,32 C24.728,32 31,25.504 31,17.5 C31,9.496 24.728,3 17,3 Z M10.098,26.606 C10.7,25.301 14.368,24.025 17,24.025 C19.632,24.025 23.314,25.301 23.902,26.606 C21.998,28.172 19.604,29.1 17,29.1 C14.396,29.1 12.002,28.172 10.098,26.606 Z M25.904,24.5035 C23.902,21.9805 19.044,21.125 17,21.125 C14.956,21.125 10.098,21.9805 8.096,24.5035 C6.668,22.5605 5.8,20.139 5.8,17.5 C5.8,11.1055 10.826,5.9 17,5.9 C23.174,5.9 28.2,11.1055 28.2,17.5 C28.2,20.139 27.332,22.5605 25.904,24.5035 L25.904,24.5035 Z M17,8.8 C14.284,8.8 12.1,11.062 12.1,13.875 C12.1,16.688 14.284,18.95 17,18.95 C19.716,18.95 21.9,16.688 21.9,13.875 C21.9,11.062 19.716,8.8 17,8.8 Z M17,16.05 C15.838,16.05 14.9,15.0785 14.9,13.875 C14.9,12.6715 15.838,11.7 17,11.7 C18.162,11.7 19.1,12.6715 19.1,13.875 C19.1,15.0785 18.162,16.05 17,16.05 Z" id="Shape" fill="#000000" fill-rule="nonzero"></path>
      </g>
    </g>
  </g>
</svg>