<?xml version="1.0" encoding="UTF-8"?>
<svg width="60px" height="60px" viewBox="0 0 60 60" version="1.1"
  xmlns="http://www.w3.org/2000/svg"
  xmlns:xlink="http://www.w3.org/1999/xlink">
  <title>iconmonstr-party-8</title>
  <g id="Journey_Finish_Modal_1.0" transform="translate(-170.000000, -287.000000)">
    <g id="iconmonstr-party-8" transform="translate(150.000000, 267.000000)">
      <g transform="translate(20.000000, 20.000000)">
        <path d="M56.3,32.3436523 C53.775,37.5959335 49.0225,41.5357693 42.7375,40.5958085 L42.4975,43.6506812 L39.4,42.0282488 L41.635,40.0508312 C40.9025,39.3083622 38.745,37.6459314 38.21,32.8636307 C41.7875,29.5887671 44.5975,24.5014791 44.9275,18.0892463 C47.33,16.8767968 50.0725,16.8167993 52.7025,18.191742 C58.4375,21.1966168 58.6425,27.4638557 56.3,32.3436523 M30.4925,34.4435649 L32.1975,36.7509687 L27.7475,36.7509687 L29.445,34.4560643 C17.62,30.936211 17.345,17.8392567 17.345,16.5718095 C17.345,9.41460772 21.2375,2.3449023 29.93,2.3449023 C38.625,2.3449023 42.515,9.33461106 42.515,16.4943127 C42.515,17.7317612 42.08,31.1312029 30.4925,34.4435649 M18.3225,40.0508312 L20.5525,42.0282488 L17.4525,43.6506812 L17.215,40.5958085 C11.665,41.9082538 6.1275,37.4959377 3.655,32.3436523 C1.31,27.4638557 1.515,21.1966168 7.25,18.191742 C9.8425,16.8342986 12.55,16.8667972 14.93,18.0267489 C15.2425,24.5864756 18.0975,29.7387609 21.7325,33.0036248 C21.6075,34.0260822 21.12,37.8084246 18.3225,40.0508312 M53.745,16.199325 C50.8225,14.6718887 47.7425,14.5968918 44.965,15.671847 C44.4775,6.38973376 38.44,2.13162821e-14 29.93,2.13162821e-14 C21.4675,2.13162821e-14 15.4525,6.31223699 14.9025,15.5068539 C13.775,15.0893713 12.5925,14.8668805 11.38,14.8668805 C9.6375,14.8668805 7.9,15.3143619 6.21,16.199325 C2.1775,18.311737 0,22.1640765 0,26.5588934 C0,28.728803 0.53,31.031207 1.63,33.3186117 C4.895,40.1133286 10.7075,43.1182034 15.155,43.0932044 L15.4775,47.2230324 L19.0475,45.3556102 C21.1575,49.2304487 21.8075,53.4377734 21.065,58.5675597 C20.9625,59.2625307 21.4775,60 22.3,60 C22.9125,60 23.4425,59.5500187 23.535,58.9300446 C24.345,53.3302779 23.5925,48.5104787 21.2575,44.1981584 L24.485,42.5057289 L21.5275,39.888338 C22.5825,38.5058956 23.3475,36.6684721 23.7775,34.5935586 C24.4425,35.0385401 25.1175,35.4310237 25.7975,35.7585101 L23.4025,39.2508645 L28.86,39.2508645 C27.1325,44.4131495 27.965,47.4305237 28.85,49.6354319 C29.705,51.767843 30.4475,53.6077663 28.52,58.272572 C28.1775,59.1000375 28.79,60 29.6725,60 C30.1625,60 30.625,59.7075122 30.825,59.2275322 C33.14,53.6202658 32.0925,51.0078747 31.165,48.7029707 C30.325,46.6130578 29.685,44.0606641 31.49,39.2508645 L36.54,39.2508645 L34.1175,35.7060122 C34.8,35.3635265 35.4875,34.9610433 36.1575,34.4985626 C36.58,36.6134744 37.3525,38.4833965 38.425,39.888338 L35.465,42.5057289 L38.695,44.1981584 C36.36,48.5079788 35.6075,53.3327778 36.42,58.9300446 C36.5075,59.5500187 37.0425,60 37.6525,60 C38.4775,60 38.99,59.2625307 38.89,58.5675597 C38.145,53.4377734 38.7925,49.2279488 40.905,45.3556102 L44.475,47.2230324 L44.7975,43.0932044 C52.62,43.055706 59.9525,34.5960585 59.9525,26.5588934 C59.9525,22.1640765 57.7775,18.311737 53.745,16.199325 M52.7075,8.27965501 L53.91,8.95962668 L54.1375,10.3220699 L55.1525,9.38960877 L56.5225,9.59210033 L55.945,8.33465272 L56.5625,7.09970418 L55.19,7.25719762 L54.2075,6.28973793 L53.935,7.64218158 L52.7075,8.27965501 L52.7075,8.27965501 Z M52.7725,14.2919045 L52.095,10.2295738 L48.515,8.20715804 L52.165,6.30973709 L52.98,2.27240532 L55.9125,5.1622849 L60,4.68980459 L58.16,8.37465106 L59.8725,12.119495 L55.8025,11.5070205 L52.7725,14.2919045 L52.7725,14.2919045 Z M5.7275,50.5153952 L7.0175,51.4378568 L7.085,49.8529228 L8.36,48.9104621 L6.8725,48.3529853 L6.3725,46.8505479 L5.3875,48.0929961 L3.8025,48.1054956 L4.68,49.4279405 L4.2025,50.9378776 L5.7275,50.5153952 Z M8.855,55.2076997 L5.345,52.6953044 L1.1875,53.855256 L2.4875,49.7354277 L0.1,46.1380776 L4.4175,46.1005791 L7.1,42.7157202 L8.465,46.8155494 L12.51,48.3254864 L9.04,50.8928795 L8.855,55.2076997 Z M10.435,2.26490563 C9.135,2.26490563 8.08,3.32236157 8.08,4.6248073 C8.08,5.92475314 9.135,6.97970918 10.435,6.97970918 C11.735,6.97970918 12.79,5.92475314 12.79,4.6248073 C12.79,3.32236157 11.735,2.26490563 10.435,2.26490563 M10.435,9.23211533 C7.8975,9.23211533 5.8325,7.16470147 5.8325,4.6248073 C5.8325,2.08491313 7.8975,0.014999375 10.435,0.014999375 C12.9725,0.014999375 15.0375,2.08491313 15.0375,4.6248073 C15.0375,7.16470147 12.9725,9.23211533 10.435,9.23211533 M3.6975,10.4770635 C2.94,10.4770635 2.325,11.0945377 2.325,11.8520062 C2.325,12.6094746 2.94,13.2269489 3.6975,13.2269489 C4.455,13.2269489 5.07,12.6094746 5.07,11.8520062 C5.07,11.0945377 4.455,10.4770635 3.6975,10.4770635 M3.6975,15.4768551 C1.7025,15.4768551 0.0775,13.8494229 0.0775,11.8520062 C0.0775,9.85458939 1.7025,8.2296571 3.6975,8.2296571 C5.6925,8.2296571 7.32,9.85458939 7.32,11.8520062 C7.32,13.8494229 5.6925,15.4768551 3.6975,15.4768551 M46.3975,1.99991667 C45.7425,1.99991667 45.2125,2.53489438 45.2125,3.18736719 C45.2125,3.8423399 45.7425,4.37481772 46.3975,4.37481772 C47.0525,4.37481772 47.5825,3.8423399 47.5825,3.18736719 C47.5825,2.53489438 47.0525,1.99991667 46.3975,1.99991667 M46.3975,6.37223449 C44.6425,6.37223449 43.215,4.94479397 43.215,3.18736719 C43.215,1.42994042 44.6425,0 46.3975,0 C48.1525,0 49.58,1.42994042 49.58,3.18736719 C49.58,4.94479397 48.1525,6.37223449 46.3975,6.37223449 M52.485,46.4280655 C51.04,46.4280655 49.8625,47.6030165 49.8625,49.0529561 C49.8625,50.5003958 51.04,51.6753469 52.485,51.6753469 C53.93,51.6753469 55.1025,50.5003958 55.1025,49.0529561 C55.1025,47.6030165 53.93,46.4280655 52.485,46.4280655 M52.485,53.9252531 C49.7975,53.9252531 47.6125,51.7403442 47.6125,49.0529561 C47.6125,46.3630682 49.7975,44.1781592 52.485,44.1781592 C55.1675,44.1781592 57.3525,46.3630682 57.3525,49.0529561 C57.3525,51.7403442 55.1675,53.9252531 52.485,53.9252531" id="Shape" fill="#0d3b66"></path>
      </g>
    </g>
  </g>
</svg>