<?xml version="1.0" encoding="UTF-8"?>
<svg width="33px" height="57px" viewBox="0 0 33 57" version="1.1"
  xmlns="http://www.w3.org/2000/svg"
  xmlns:xlink="http://www.w3.org/1999/xlink">
  <title>1622523</title>
  <g id="Group" transform="translate(16.500000, 28.500000) scale(-1, 1) rotate(-180.000000) translate(-16.500000, -28.500000) ">
    <path fill="#ee964a" d="M5.85241287,56.8827257 C5.90991957,56.6481771 7.44932976,51.2019587 8.31635389,48.1715908 C10.0636729,42.0545634 10.7979893,39.6621677 11.3465147,38.2548761 C11.5057641,37.8467616 11.647319,37.4621019 11.6605898,37.4105012 C11.6782842,37.3260637 11.6384718,37.283845 11.4438338,37.1665707 C11.0058981,36.8991853 10.7493298,36.5239075 10.616622,35.9609909 C10.594504,35.8577895 10.5414209,35.5294214 10.5016086,35.2338902 C10.3335121,33.9673278 10.1477212,33.7093243 8.93123324,33.0197515 C6.70616622,31.762571 5.03404826,30.3130607 3.56983914,28.3663073 C0.499865952,24.2898527 -0.667962466,18.9702905 0.371581769,13.8196033 C1.59691689,7.78232244 5.7727882,2.85211094 11.3155496,0.89597564 C13.1203753,0.258003457 14.6376676,0 16.5619303,0 C17.9553619,0 18.9683646,0.117274298 20.25563,0.426878446 C24.1660858,1.36976381 27.6209115,3.81376018 29.9875335,7.32729816 C31.6463807,9.78067649 32.6461126,12.6468603 32.9513405,15.8132664 C33.022118,16.545058 33.0088472,18.3510822 32.9292225,19.1532384 C32.5355228,23.1452555 30.9563003,26.7291581 28.3508043,29.5765781 C27.0723861,30.9697967 25.7099196,32.0534112 24.1262735,32.935314 C23.3521448,33.3668834 22.9894102,33.6108139 22.7859249,33.8453625 C22.4718499,34.2065674 22.3966488,34.431734 22.2418231,35.444984 C22.1002681,36.3737964 21.9100536,36.8053658 21.4986595,37.11497 C21.4101877,37.1806436 21.3438338,37.2650811 21.3482574,37.3026088 C21.352681,37.3401366 21.4676944,37.7060324 21.6048257,38.118838 C22.0914209,39.5777302 22.4983914,41.1867336 24.2147453,48.3686116 C25.227748,52.6092503 26.2274799,56.8686528 26.2274799,56.9483993 C26.2274799,56.9859271 25.0286863,57 22.2772118,57 L18.3225201,57 L17.3979893,53.1064933 C16.8936997,50.9627191 16.4601877,49.1848408 16.4424933,49.152004 C16.4203753,49.1144762 16.3982574,49.1144762 16.3672922,49.142622 C16.3451743,49.1707678 15.8453083,50.9111184 15.2569705,53.0126739 C14.6730563,55.1142293 14.1820375,56.8733438 14.1687668,56.9202535 C14.1466488,56.995309 13.9077748,57 9.98404826,57 L5.82587131,57 L5.85241287,56.8827257 Z M12.4258713,35.942227 L12.5187668,35.8343346 L16.5619303,35.8484075 L20.6050938,35.8671714 L20.733378,35.9985186 C20.852815,36.1204839 20.8705094,36.1251749 20.9324397,36.0548103 C21.0651475,35.9187721 21.1093834,35.6513867 21.0518767,35.3605465 C20.9855228,35.0181055 20.852815,34.8117027 20.6095174,34.6850465 C20.3529491,34.5443173 20.0786863,34.5443173 19.1983914,34.6897375 C18.1234584,34.8679944 17.5262735,34.9195951 16.4734584,34.9195951 C15.3675603,34.9195951 14.6863271,34.8633034 13.5760054,34.6662826 C13.1513405,34.5912271 12.7089812,34.5302444 12.5983914,34.5302444 C12.2135389,34.5302444 11.9613941,34.6803555 11.8021448,35.0087236 C11.6163539,35.3933833 11.6384718,35.8014978 11.8596515,36.0360464 C12.0631367,36.2471402 12.1648794,36.279977 12.2621984,36.1580117 C12.3020107,36.10172 12.3772118,36.0032096 12.4258713,35.942227 Z" id="Shape"></path>
  </g>
</svg>