<?xml version="1.0" encoding="UTF-8"?>
<svg width="60px" height="60px" viewBox="0 0 60 60" version="1.1"
  xmlns="http://www.w3.org/2000/svg"
  xmlns:xlink="http://www.w3.org/1999/xlink">
  <title>iconmonstr-party-14</title>
  <g id="First_Prize_Modal_1.3" transform="translate(-171.000000, -54.000000)">
    <g id="iconmonstr-party-14" transform="translate(151.000000, 34.000000)">
      <g transform="translate(20.000000, 20.000000)">
        <path d="M38.8775,36.7575 C40.0625,40.1875 44,42.905 48.38,41.4275 L48.4325,41.41 C52.345,40.05 54.41,35.805 53.0675,31.8925 C52.6,30.5275 52.005,29.05 51.33,27.5 L36.4125,27.5 C37.16,30.915 37.975,34.1175 38.8775,36.7575 M44.5375,13.6775 L34.41,17.1475 C34.8675,19.74 35.3575,22.405 35.885,25 L50.2,25 C48.5625,21.49 46.5875,17.65 44.5375,13.6775 M45.7675,10.6125 C49.5775,18.0075 53.4825,25.4 55.4325,31.08 C56.9275,35.44 55.32,40.8175 50.3625,43.265 L53.39,52.0875 C54.1175,54.1175 56.695,54.4025 59.37,54.1075 L60,55.945 L48.18,60 L47.5,58.03 C49.7575,56.8325 51.72,54.9925 51.025,52.895 L48.005,44.095 C42.6,45.1925 38.02,41.9425 36.515,37.57 C34.5375,31.81 33.0025,23.655 31.575,15.4775 L45.7675,10.6125 Z M23.5875,27.5 L8.67,27.5 C7.995,29.05 7.4,30.5275 6.9325,31.8925 C5.5925,35.805 7.655,40.05 11.5675,41.41 L11.62,41.4275 C16.0025,42.905 19.94,40.1875 21.1225,36.7575 C22.0275,34.1175 22.8425,30.915 23.5875,27.5 M9.8,25 L24.115,25 C24.6425,22.405 25.1325,19.74 25.5925,17.1475 L15.465,13.6775 C13.4125,17.65 11.4375,21.49 9.8,25 M28.425,15.4775 C26.9975,23.655 25.4625,31.81 23.485,37.57 C21.98,41.9425 17.4,45.1925 11.995,44.095 L8.975,52.895 C8.28,54.9925 10.2425,56.8325 12.5,58.03 L11.8225,60 L4.4408921e-15,55.945 L0.63,54.1075 C3.305,54.4025 5.885,54.1175 6.61,52.0875 L9.6375,43.265 C4.68,40.8175 3.075,35.44 4.5675,31.08 C6.5175,25.4 10.4225,18.0075 14.235,10.6125 L28.425,15.4775 Z M46.25,35.005 C47.285,35.005 48.125,35.845 48.125,36.88 C48.125,37.9125 47.285,38.755 46.25,38.755 C45.215,38.755 44.375,37.9125 44.375,36.88 C44.375,35.845 45.215,35.005 46.25,35.005 M10,35.625 C10,36.66 10.84,37.5 11.875,37.5 C12.91,37.5 13.75,36.66 13.75,35.625 C13.75,34.5925 12.91,33.75 11.875,33.75 C10.84,33.75 10,34.5925 10,35.625 M18.125,30 C19.16,30 20,30.8425 20,31.875 C20,32.91 19.16,33.75 18.125,33.75 C17.09,33.75 16.25,32.91 16.25,31.875 C16.25,30.8425 17.09,30 18.125,30 M44.375,28.7525 C45.41,28.7525 46.25,29.5925 46.25,30.63 C46.25,31.6625 45.41,32.505 44.375,32.505 C43.34,32.505 42.5,31.6625 42.5,30.63 C42.5,29.5925 43.34,28.7525 44.375,28.7525 M31.2525,8.81 L31.2525,1.2525 C31.2525,0.56 30.695,0.0025 30.0025,0.0025 C29.315,0.0025 28.755,0.56 28.755,1.2525 L28.755,8.81 C28.755,9.5 29.315,10.06 30.0025,10.06 C30.695,10.06 31.2525,9.5 31.2525,8.81 M36.0825,9.965 L40.185,2.99 C40.54,2.395 40.34,1.6275 39.745,1.2775 C39.1475,0.93 38.385,1.1225 38.035,1.72 L33.9275,8.695 C33.5775,9.29 33.7775,10.0575 34.3675,10.4075 C34.5675,10.525 34.785,10.58 35.0025,10.58 C35.4325,10.58 35.85,10.36 36.0825,9.965 M24.7025,10.58 C24.275,10.58 23.86,10.36 23.6225,9.965 L19.5175,2.99 C19.1675,2.395 19.365,1.6275 19.96,1.2775 C20.5525,0.9275 21.32,1.125 21.6725,1.72 L25.78,8.695 C26.1275,9.29 25.9325,10.0575 25.335,10.4075 C25.135,10.525 24.92,10.58 24.7025,10.58" id="Shape" fill="#0d3b66"></path>
      </g>
    </g>
  </g>
</svg>