<?xml version="1.0" encoding="UTF-8"?>
<svg width="43px" height="44px" viewBox="0 0 43 44" version="1.1"
  xmlns="http://www.w3.org/2000/svg"
  xmlns:xlink="http://www.w3.org/1999/xlink">
  <title>iconmonstr-friend-3</title>
  <path d="M8.56595833,44 L8.56416667,44 C7.48379167,44 6.59870833,43.1291667 6.552125,42.0218333 C6.321,36.3018333 5.670625,20.1135 5.670625,20.1135 L2.596125,25.8078333 C2.262875,26.4293333 1.53366667,26.6988333 0.888666667,26.444 L0.886875,26.4421667 C0.342208333,26.2258333 0,25.696 0,25.1221667 L0.0519583333,24.7371667 L3.02433333,14.0011667 C3.316375,12.9488333 4.25520833,12.2228333 5.32483333,12.2228333 L37.6751667,12.2228333 C38.7447917,12.2228333 39.683625,12.9488333 39.9756667,14.0011667 L42.9480417,24.7371667 L43,25.1221667 C43,25.696 42.6577917,26.2258333 42.113125,26.4421667 L42.1113333,26.444 C41.4663333,26.6988333 40.737125,26.4293333 40.403875,25.8078333 L37.329375,20.1135 C37.329375,20.1135 36.679,36.3018333 36.447875,42.0218333 C36.4012917,43.1291667 35.5162083,44 34.4358333,44 L34.4340417,44 C33.3751667,44 32.508,43.1585 32.427375,42.0805 C32.244625,39.7026667 31.7572917,34.0138333 31.610375,31.7625 C31.5494583,30.8275 30.8811667,30.2775 30.1555417,30.2775 C29.5051667,30.2775 28.7741667,30.8275 28.7150417,31.7625 C28.5663333,34.0138333 28.079,39.7026667 27.8980417,42.0805 C27.815625,43.1585 26.9484583,44 25.891375,44 L25.8877917,44 C24.8092083,44 23.9223333,43.1291667 23.8775417,42.0218333 C23.644625,36.3018333 22.7237083,18.3333333 22.7237083,18.3333333 L20.3085417,18.3333333 C20.3085417,18.3333333 19.355375,36.3018333 19.1224583,42.0218333 C19.0776667,43.1291667 18.1907917,44 17.1122083,44 L17.108625,44 C16.0515417,44 15.184375,43.1585 15.1019583,42.0805 C14.921,39.7026667 14.4336667,34.0138333 14.2849583,31.7625 C14.2258333,30.8275 13.4948333,30.2775 12.8444583,30.2775 C12.1188333,30.2775 11.4505417,30.8275 11.389625,31.7625 C11.2427083,34.0138333 10.755375,39.7026667 10.572625,42.0805 C10.492,43.1585 9.62483333,44 8.56595833,44 L8.56595833,44 Z M12.8372917,0 C15.8042917,0 18.2122917,2.464 18.2122917,5.5 C18.2122917,8.536 15.8042917,11 12.8372917,11 C9.87208333,11 7.46229167,8.536 7.46229167,5.5 C7.46229167,2.464 9.87208333,0 12.8372917,0 Z M30.1627083,0 C27.1957083,0 24.7877083,2.464 24.7877083,5.5 C24.7877083,8.536 27.1957083,11 30.1627083,11 C33.1279167,11 35.5377083,8.536 35.5377083,5.5 C35.5377083,2.464 33.1279167,0 30.1627083,0 Z" id="Shape" fill="#66d461"></path>
</svg>