<?xml version="1.0" encoding="UTF-8"?>
<svg width="100px" height="100px" viewBox="0 0 100 100" version="1.1"
  xmlns="http://www.w3.org/2000/svg"
  xmlns:xlink="http://www.w3.org/1999/xlink">
  <title>iconmonstr-smiley-18</title>
  <g id="Board" stroke="none" stroke-width="1" fill="none" fill-rule="evenodd">
    <g id="Dashboard_Menu_1" transform="translate(-182.000000, -308.000000)">
      <g id="Group-7" transform="translate(63.000000, 308.000000)">
        <g transform="translate(46.000000, 0.000000)" id="iconmonstr-smiley-18">
          <g transform="translate(73.000000, 0.000000)">
            <path d="M76.725,44.6958333 C77.4333333,50.1291667 69.9625,54.9458333 67.4083333,61.0791667 C63.3,71.4083333 77.4291667,76.6916667 82.0416667,66.9125 C85.9208333,58.6875 80.15,49.3083333 76.725,44.6958333 Z M77.175,58.9125 C75.4791667,60.6958333 73.2,59.175 74.7958333,57.2125 C75.7416667,56.0458333 76.7625,54.5208333 77.575,52.8916667 C78.1083333,54.3 78.5583333,57.4625 77.175,58.9125 Z M75,41.675 L71.8541667,43.7833333 C71.8541667,43.7833333 69.7583333,39.8333333 64.5791667,39.8333333 C59.55,39.8333333 57.3083333,43.7833333 57.3083333,43.7833333 L54.1666667,41.675 C55.3375,38.5583333 59.1875,33.3333333 64.5791667,33.3333333 C69.975,33.3333333 73.8208333,38.5583333 75,41.675 L75,41.675 Z M45.8333333,41.675 L42.6875,43.7833333 C42.6875,43.7833333 40.5916667,39.8333333 35.4125,39.8333333 C30.3833333,39.8333333 28.1416667,43.7833333 28.1416667,43.7833333 L25,41.675 C26.1708333,38.5583333 30.0208333,33.3333333 35.4125,33.3333333 C40.8083333,33.3333333 44.6541667,38.5583333 45.8333333,41.675 L45.8333333,41.675 Z M50,-7.40148683e-15 C22.3875,-7.40148683e-15 1.48029737e-14,22.3875 1.48029737e-14,50 C1.48029737e-14,77.6125 22.3875,100 50,100 C77.6125,100 100,77.6125 100,50 C100,22.3875 77.6125,-7.40148683e-15 50,-7.40148683e-15 Z M50,91.6666667 C27.025,91.6666667 8.33333333,72.975 8.33333333,50 C8.33333333,27.025 27.025,8.33333333 50,8.33333333 C72.975,8.33333333 91.6666667,27.025 91.6666667,50 C91.6666667,72.975 72.975,91.6666667 50,91.6666667 Z M64.925,74.7625 C63.6625,75.0458333 62.2375,75.0791667 60.6625,74.75 C56.9,73.9583333 53.4083333,73.575 49.9875,73.575 C46.575,73.575 43.0791667,73.9583333 39.3125,74.75 C34.6875,75.7208333 31.2125,73.75 29.9166667,70.5208333 C26.3583333,61.6416667 35.8583333,53.9916667 49.9833333,53.9916667 C55.0125,53.9916667 59.3375,54.9083333 62.7416667,56.4416667 C61.5291667,58.6166667 60.9083333,60.2416667 60.5958333,63.0583333 C53.1083333,59.4166667 34.1,60.8 36.6291667,67.7166667 C37.2041667,69.2875 43.3541667,66.5541667 49.9833333,66.5541667 C54.4041667,66.5541667 58.4791667,67.7416667 60.9541667,68.1083333 C61.6291667,70.75 62.6833333,72.7583333 64.925,74.7625 Z" id="Shape" fill="#aea5a5" fill-rule="nonzero"></path>
          </g>
        </g>
      </g>
    </g>
  </g>
</svg>