<?xml version="1.0" encoding="UTF-8"?>
<svg width="50px" height="56px" viewBox="0 0 50 56" version="1.1" xmlns="http://www.w3.org/2000/svg" xmlns:xlink="http://www.w3.org/1999/xlink">
    <title>excluir</title>
    <g id="Board" stroke="none" stroke-width="1" fill="none" fill-rule="evenodd">
        <g id="Journey_1.2" transform="translate(-45.000000, -752.000000)" fill="#000000" fill-rule="nonzero">
            <g id="Group-9" transform="translate(20.000000, 729.000000)">
                <g id="excluir" transform="translate(25.000000, 23.333333)">
                    <g id="Group" transform="translate(0.000000, 8.333333)">
                        <polygon id="Path" points="35.2064854 10.3753899 31.0142259 10.2236697 30.1053347 34.7139908 34.2975941 34.8650917"></polygon>
                        <rect id="Rectangle" x="22.9025105" y="10.2995298" width="4.19497908" height="24.4904243"></rect>
                        <polygon id="Path" points="19.8939331 34.7133716 18.9850418 10.2229472 14.7927824 10.3747706 15.7017782 34.8650917"></polygon>
                        <path d="M0.0396443515,0.089483945 L0.0396443515,4.22865826 L4.41087866,4.22865826 L7.87866109,43.1118578 C7.97374477,44.1804014 8.88064854,45 9.96778243,45 L39.9615063,45 C41.0487448,45 41.9562762,44.1797821 42.0506276,43.1111353 L45.5185146,4.22865826 L49.9603556,4.22865826 L49.9603556,0.089483945 L0.0396443515,0.089483945 Z M38.040272,40.8608257 L11.8884937,40.8608257 L8.62196653,4.22865826 L41.3075314,4.22865826 L38.040272,40.8608257 Z" id="Shape"></path>
                    </g>
                    <path d="M33.0067864,0 L18.6598803,0 C16.6417991,0 15,1.54685872 15,3.44824028 L15,10 L19.3918564,10 L19.3918564,4.13788834 L32.2748103,4.13788834 L32.2748103,10 L36.6666667,10 L36.6666667,3.44824028 C36.6666667,1.54685872 35.0248676,0 33.0067864,0 Z" id="Path"></path>
                </g>
            </g>
        </g>
    </g>
</svg>